<svg xmlns="http://www.w3.org/2000/svg" fill="none" viewBox="0 0 1230 1117">
    <defs>
        <linearGradient id="gradient_a" x1="1" y1=".976" x2=".943" y2=".416">
            <stop offset="0%" stop-color="#70BFFC"/>
            <stop offset="100%" stop-color="#248EFF"/>
        </linearGradient>
        <linearGradient id="gradient_b" x1="1.093" y1=".141" x2=".227" y2="1.006">
            <stop offset="0%" stop-color="#9ED3FF"/>
            <stop offset="100%" stop-color="#008DFF"/>
        </linearGradient>
        <linearGradient id="gradient_c" x1=".937" y1="0" x2=".232" y2="1.024">
            <stop offset="0%" stop-color="#8E89FF"/>
            <stop offset="99.286%" stop-color="#3666D6"/>
        </linearGradient>
        <linearGradient id="gradient_d" x1="1" y1=".967" x2=".851" y2=".335">
            <stop offset="0%" stop-color="#6861FF"/>
            <stop offset="100%" stop-color="#32D8D8"/>
        </linearGradient>
        <linearGradient id="gradient_e" x1="1" y1=".298" x2=".109" y2="1.052">
            <stop offset="0%" stop-color="#56EDFD"/>
            <stop offset="100%" stop-color="#0094FF"/>
        </linearGradient>
        <linearGradient id="gradient_f" x1="0" y1=".975" x2=".873" y2=".055">
            <stop offset="0%" stop-color="#1A9199"/>
            <stop offset="100%" stop-color="#6FBFFC"/>
        </linearGradient>
    </defs>
    <!-- Original paths with updated gradient references -->
    <path d="m312.566 490.572 179.636-179.798c26.47-26.493 71.769-7.753 71.769 29.691v742.805c0 29.96-36.239 44.95-57.415 23.76L29.5 629.543c-39.345-39.38-39.332-103.18.03-142.545L506.564 9.918c21.18-21.182 57.406-6.187 57.406 23.762v67.968a33.608 33.608 0 0 1-9.821 23.74L122.485 557.916l278.483 278.732c17.205 17.221 46.649 5.04 46.649-19.299V520.095l-87.572 86.901c-21.218 21.054-57.313 6.031-57.313-23.855v-68.816a33.604 33.604 0 0 1 9.834-23.753Z" fill-rule="evenodd" fill="url(#gradient_a)"/>
    <path d="M302.732 623.505c0 14.943 18.048 22.455 28.656 11.928l116.23-115.338q68.965-66.46 100.393-51.908 9.807 4.54 15.96 16.97V340.466c0-37.444-45.299-56.184-71.769-29.69L312.566 490.571a33.609 33.609 0 0 0-9.834 23.753v109.18Z" fill="url(#gradient_b)"/>
    <path d="M90.133 427.083q-34.883 34.942 32.352 130.832L554.15 125.387a33.604 33.604 0 0 0 9.82-23.739V33.764c0-29.96-36.25-44.95-57.422-23.745L90.157 427.06l-.024.024Z" fill="url(#gradient_c)"/>
    <path d="m1542.566 1607.572 179.636-179.798c26.47-26.493 71.769-7.753 71.769 29.691v742.805c0 29.96-36.239 44.95-57.415 23.76L1259.5 1746.543c-39.345-39.38-39.332-103.18.03-142.545l477.035-477.08c21.18-21.182 57.406-6.187 57.406 23.762v67.968a33.608 33.608 0 0 1-9.821 23.74l-431.665 432.528 278.483 278.732c17.205 17.221 46.649 5.04 46.649-19.299v-297.254l-87.572 86.901c-21.218 21.054-57.313 6.031-57.313-23.855v-68.816a33.604 33.604 0 0 1 9.834-23.753Z" fill-rule="evenodd" fill="url(#gradient_d)" transform="rotate(180 1230 1117)"/>
    <path d="M1532.732 1740.505c0 14.943 18.048 22.455 28.656 11.928l116.23-115.338q68.965-66.46 100.393-51.908 9.807 4.54 15.96 16.97v-144.692c0-37.444-45.299-56.184-71.769-29.69l-179.636 179.797a33.609 33.609 0 0 0-9.834 23.753v109.18Z" fill="url(#gradient_e)" transform="rotate(180 1230 1117)"/>
    <path d="M1320.133 1544.083q-34.883 34.942 32.352 130.832l431.665-432.528a33.604 33.604 0 0 0 9.82-23.739v-67.884c0-29.96-36.25-44.95-57.422-23.745l-416.391 417.04-.024.024Z" fill="url(#gradient_f)" transform="rotate(180 1230 1117)"/>
</svg>
